<?xml version="1.0" standalone="no"?><!DOCTYPE svg PUBLIC "-//W3C//DTD SVG 1.1//EN" "http://www.w3.org/Graphics/SVG/1.1/DTD/svg11.dtd"><svg t="1558433465597" class="icon" style="" viewBox="0 0 1024 1024" version="1.1" xmlns="http://www.w3.org/2000/svg" p-id="6601" xmlns:xlink="http://www.w3.org/1999/xlink" width="200" height="200"><defs><style type="text/css"></style></defs><path d="M812.4 536.6c-13.9 0-25.1-11.2-25.1-25.1 0-151.5-123.3-274.8-274.8-274.8-13.9 0-25.1-11.2-25.1-25.1 0-13.9 11.2-25.1 25.1-25.1 179.2 0 325 145.8 325 325 0 13.9-11.2 25.1-25.1 25.1zM512.5 734.2c-122.8 0-222.7-99.9-222.7-222.7 0-13.9 11.2-25.1 25.1-25.1 13.9 0 25.1 11.2 25.1 25.1 0 95.1 77.4 172.5 172.5 172.5 13.9 0 25.1 11.2 25.1 25.1 0 13.9-11.2 25.1-25.1 25.1z" fill="#D4A3A0" p-id="6602"></path><path d="M512.5 837.8c-179.9 0-326.3-146.4-326.3-326.3 0-13.9 11.2-25.1 25.1-25.1 13.9 0 25.1 11.2 25.1 25.1 0 152.2 123.8 276.1 276.1 276.1 13.9 0 25.1 11.2 25.1 25.1 0 13.8-11.2 25.1-25.1 25.1zM710.2 536.6c-13.9 0-25.1-11.2-25.1-25.1 0-95.1-77.4-172.5-172.5-172.5-13.9 0-25.1-11.2-25.1-25.1s11.2-25.1 25.1-25.1c122.8 0 222.7 99.9 222.7 222.7-0.1 13.9-11.3 25.1-25.1 25.1z" fill="#D4A3A0" p-id="6603"></path><path d="M512.5 624.4c-62.3 0-112.9-50.7-112.9-112.9s50.7-112.9 112.9-112.9 112.9 50.7 112.9 112.9-50.6 112.9-112.9 112.9z m0-150.5c-20.8 0-37.6 16.9-37.6 37.6s16.9 37.6 37.6 37.6 37.6-16.9 37.6-37.6-16.8-37.6-37.6-37.6z" fill="#D4A3A0" p-id="6604"></path><path d="M512.5 991C248.1 991 33 775.9 33 511.5S248.1 32 512.5 32 992 247.1 992 511.5 776.9 991 512.5 991z m0-858.6c-209 0-379.1 170.1-379.1 379.1s170.1 379.1 379.1 379.1 379.1-170.1 379.1-379.1-170.1-379.1-379.1-379.1z" fill="#D4A3A0" p-id="6605"></path></svg>