<?xml version="1.0" standalone="no"?><!DOCTYPE svg PUBLIC "-//W3C//DTD SVG 1.1//EN" "http://www.w3.org/Graphics/SVG/1.1/DTD/svg11.dtd"><svg t="1558439250717" class="icon" style="" viewBox="0 0 1024 1024" version="1.1" xmlns="http://www.w3.org/2000/svg" p-id="20349" xmlns:xlink="http://www.w3.org/1999/xlink" width="200" height="200"><defs><style type="text/css"></style></defs><path d="M186.795 81.582c66.956 0 121.945 52.622 121.945 117.162 0 64.544-54.995 117.166-121.945 117.166-66.954 0-121.95-52.622-121.95-117.166-1.21-64.568 53.793-117.162 121.95-117.162z m325.223 0c66.961 0 121.944 52.622 121.944 117.162 0 64.544-54.994 117.166-121.944 117.166s-121.946-52.622-121.946-117.166c0-64.568 54.996-117.162 121.946-117.162z m326.394 0c66.96 0 121.95 52.622 121.95 117.162 0 64.544-54.994 117.166-121.95 117.166-66.95 0-121.946-52.622-121.946-117.166 0-64.568 54.997-117.162 121.946-117.162zM186.795 394.85c66.956 0 121.945 52.62 121.945 117.163 0 64.548-54.995 117.169-121.945 117.169-66.954 0-123.16-52.62-123.16-117.169 0-64.542 54.997-117.163 123.16-117.163z m325.223 0c66.961 0 121.944 52.62 121.944 117.163 0 64.548-54.994 117.169-121.944 117.169s-121.946-52.62-121.946-117.169c0-64.542 54.996-117.163 121.946-117.163z m326.394 0c66.96 0 121.95 52.62 121.95 117.163 0 64.548-54.994 117.169-121.95 117.169-66.95 0-121.946-52.62-121.946-117.169 0-64.542 54.997-117.163 121.946-117.163zM186.795 708.09c66.956 0 121.945 52.623 121.945 117.164 0 64.545-54.995 117.163-121.945 117.163-66.954 0-121.95-52.618-121.95-117.163 0-64.541 53.793-117.164 121.95-117.164z m325.223 0c66.961 0 121.944 52.623 121.944 117.164 0 64.545-54.994 117.163-121.944 117.163s-121.946-52.618-121.946-117.163c0-64.541 54.996-117.164 121.946-117.164z m326.394 0c66.96 0 121.95 52.623 121.95 117.164 0 64.545-54.994 117.163-121.95 117.163-66.95 0-121.946-52.618-121.946-117.163 0-64.541 54.997-117.164 121.946-117.164z m0 0" p-id="20350" fill="#D4A3A0"></path></svg>