<?xml version="1.0" standalone="no"?><!DOCTYPE svg PUBLIC "-//W3C//DTD SVG 1.1//EN" "http://www.w3.org/Graphics/SVG/1.1/DTD/svg11.dtd"><svg t="1558437829817" class="icon" style="" viewBox="0 0 1058 1024" version="1.1" xmlns="http://www.w3.org/2000/svg" p-id="5439" xmlns:xlink="http://www.w3.org/1999/xlink" width="206.640625" height="200"><defs><style type="text/css"></style></defs><path d="M0 0" p-id="5440" fill="#D4A3A0"></path><path d="M759.466667 273.066667H463.223467c-14.097067-68.266667-77.7216-136.533333-149.0944-136.533334h-170.666667C63.931733 136.533333 0 205.5168 0 290.679467v583.9872C0 958.737067 83.217067 1024 162.133333 1024h618.666667C863.1296 1024 921.6 956.996267 921.6 874.666667V426.666667C921.6 332.5952 853.572267 273.066667 759.466667 273.066667z" p-id="5441" fill="#D4A3A0"></path><path d="M887.466667 136.533333H591.189333C577.137778 68.266667 513.501867 0 442.129067 0h-170.666667c-53.998933 0-104.174933 44.612267-131.1744 94.208 1.092267 0 2.082133 8.192 3.1744 8.192h170.666667c82.875733 0 149.845333 68.266667 178.653866 136.533333H759.466667C877.056 238.933333 955.733333 309.0432 955.733333 426.666667v448c0 2.2528 7.907556 4.4032 7.839289 6.724266C1014.135467 857.463467 1058.133333 806.263467 1058.133333 746.666667V298.666667C1058.133333 204.5952 981.572267 136.533333 887.466667 136.533333z" p-id="5442" fill="#D4A3A0"></path></svg>