<?xml version="1.0" standalone="no"?><!DOCTYPE svg PUBLIC "-//W3C//DTD SVG 1.1//EN" "http://www.w3.org/Graphics/SVG/1.1/DTD/svg11.dtd"><svg t="1549434862727" class="icon" style="" viewBox="0 0 1024 1024" version="1.1" xmlns="http://www.w3.org/2000/svg" p-id="2831" xmlns:xlink="http://www.w3.org/1999/xlink" width="32" height="32"><defs><style type="text/css"></style></defs><path d="M96.173558 3.44649h191.906985a31.984498 31.984498 0 0 1 31.984497 31.79259v386.852497L904.453794 10.579032l11.194574-7.90017A31.85656 31.85656 0 0 1 959.754991 32.072615v960.270569a31.888544 31.888544 0 0 1-44.106623 29.361768l-11.162589-7.836202L320.06504 602.324221v386.852497a31.984498 31.984498 0 0 1-31.984497 31.792591H96.173558a31.984498 31.984498 0 0 1-31.984498-31.792591V35.23908a31.984498 31.984498 0 0 1 31.984498-31.79259z" p-id="2832"></path></svg>