<?xml version="1.0" standalone="no"?><!DOCTYPE svg PUBLIC "-//W3C//DTD SVG 1.1//EN" "http://www.w3.org/Graphics/SVG/1.1/DTD/svg11.dtd"><svg t="1549006202086" class="icon" style="" viewBox="0 0 1024 1024" version="1.1" xmlns="http://www.w3.org/2000/svg" p-id="1336" xmlns:xlink="http://www.w3.org/1999/xlink" width="200" height="200"><defs><style type="text/css"></style></defs><path d="M417.6 376l46.4 84.8-83.2-51.2-6.4-41.6 43.2 8z m-70.4 112l97.6 3.2-83.2-51.2-41.6 14.4 27.2 33.6z m152-139.2l-32-28.8-16 40 46.4 84.8 1.6-96z m-142.4 224l-40-16 28.8-32 97.6 3.2-86.4 44.8z m227.2-208l-51.2 81.6 3.2-96 35.2-25.6 12.8 40zM408 640l51.2-81.6-86.4 44.8-9.6 41.6 44.8-4.8z m32 19.2l51.2-81.6-3.2 96-35.2 25.6-12.8-40z m176-275.2l-52.8 80 86.4-44.8 9.6-41.6-43.2 6.4z m51.2 67.2l40 16-28.8 32-97.6-3.2 86.4-44.8z m-142.4 224l3.2-96 46.4 84.8-16 40-33.6-28.8z m152-139.2l27.2 33.6-41.6 12.8-83.2-51.2 97.6 4.8z m-70.4 112l43.2 9.6-6.4-43.2-83.2-51.2 46.4 84.8zM768 947.2l-28.8-54.4 59.2 1.6-4.8-36.8-73.6-3.2-16-28.8 84.8 3.2-4.8-36.8-99.2-3.2-56-100.8 64 12.8-8-62.4 46.4 28.8 12.8 97.6 36.8 1.6-9.6-75.2 36.8 22.4 19.2-30.4-36.8-22.4 73.6-24-17.6-32-96 30.4-48-27.2 62.4-19.2-40-49.6 116.8 4.8 46.4 86.4 35.2-11.2-38.4-75.2 33.6 1.6 35.2 64 35.2-11.2-28.8-52.8 62.4 1.6 1.6-35.2-62.4-1.6 32-49.6-35.2-14.4-40 60.8-33.6-1.6 46.4-70.4-35.2-12.8-52.8 83.2-116.8-4.8 43.2-48-60.8-24 48-25.6 92.8 36.8 19.2-30.4-70.4-25.6 38.4-19.2-17.6-32-36.8 19.2 16-73.6-36.8-1.6-20.8 97.6-48 25.6 12.8-62.4-64 8 62.4-97.6 99.2 3.2 8-35.2-84.8-3.2 17.6-27.2 73.6 3.2 8-35.2-59.2-1.6L800 96l-32-19.2-33.6 52.8-27.2-51.2-28.8 22.4 35.2 64-19.2 27.2-40-73.6-28.8 22.4 46.4 86.4-62.4 97.6-20.8-60.8-51.2 40 1.6-52.8 80-60.8-17.6-32-60.8 46.4 1.6-43.2-35.2-1.6-1.6 43.2L448 152l-19.2 30.4 75.2 65.6-1.6 52.8-48-43.2-24 59.2-54.4-102.4 52.8-83.2-27.2-24-44.8 70.4-16-28.8 40-60.8L353.6 64l-32 49.6-28.8-54.4L256 76.8l28.8 54.4-59.2-1.6 4.8 36.8 73.6 3.2 16 28.8-84.8-3.2 4.8 36.8 99.2 3.2 54.4 102.4-64-12.8 8 62.4-46.4-28.8-12.8-97.6-36.8-1.6 9.6 75.2-36.8-22.4-19.2 30.4 36.8 22.4-73.6 24 17.6 32 96-30.4 46.4 28.8-62.4 19.2 40 49.6-116.8-4.8-46.4-86.4-35.2 11.2L139.2 480h-32l-35.2-64-35.2 11.2L64 478.4l-62.4-1.6L0 512l62.4 1.6-32 49.6 35.2 14.4 40-60.8 33.6 1.6-46.4 70.4 35.2 12.8 52.8-83.2 116.8 4.8-43.2 48 60.8 24-48 25.6-92.8-36.8-19.2 30.4 70.4 28.8-38.4 19.2 17.6 32 38.4-19.2-16 73.6 36.8 1.6 20.8-97.6 48-25.6-14.4 60.8 64-8-62.4 97.6-99.2-3.2-8 35.2 84.8 3.2-17.6 27.2-73.6-3.2-8 35.2 59.2 1.6L224 928l32 19.2 33.6-52.8 27.2 51.2 28.8-22.4-35.2-64 17.6-27.2 40 73.6 28.8-22.4-44.8-86.4 62.4-97.6 20.8 60.8 51.2-38.4-1.6 52.8-80 60.8 17.6 32 60.8-46.4-3.2 41.6 36.8 1.6 1.6-43.2 57.6 49.6 19.2-30.4-75.2-65.6 1.6-54.4 48 43.2 24-59.2 54.4 102.4-52.8 83.2 27.2 24 44.8-70.4 16 28.8-40 60.8 27.2 24 32-49.6 28.8 54.4 36.8-14.4z" p-id="1337" fill="#26261b"></path></svg>