<?xml version="1.0" standalone="no"?><!DOCTYPE svg PUBLIC "-//W3C//DTD SVG 1.1//EN" "http://www.w3.org/Graphics/SVG/1.1/DTD/svg11.dtd"><svg t="1549434807962" class="icon" style="" viewBox="0 0 1024 1024" version="1.1" xmlns="http://www.w3.org/2000/svg" p-id="4054" xmlns:xlink="http://www.w3.org/1999/xlink" width="32" height="32"><defs><style type="text/css"></style></defs><path d="M927.803661 3.406845h-191.916935a31.986156 31.986156 0 0 0-31.986156 31.79424v386.872556L119.449527 10.539758 108.286359 2.639178A31.858211 31.858211 0 0 0 64.17745 32.034455v960.320361a31.890198 31.890198 0 0 0 44.108909 29.363292l11.131182-7.836609L703.90057 602.31563v386.872557a31.986156 31.986156 0 0 0 31.986156 31.794239h191.916935a31.986156 31.986156 0 0 0 31.986156-31.794239V35.201085a31.986156 31.986156 0 0 0-31.986156-31.79424z" p-id="4055" fill="#D4A3A0"></path></svg>