<?xml version="1.0" standalone="no"?><!DOCTYPE svg PUBLIC "-//W3C//DTD SVG 1.1//EN" "http://www.w3.org/Graphics/SVG/1.1/DTD/svg11.dtd"><svg t="1557333877080" class="icon" style="" viewBox="0 0 1024 1024" version="1.1" xmlns="http://www.w3.org/2000/svg" p-id="4053" xmlns:xlink="http://www.w3.org/1999/xlink" width="200" height="200"><defs><style type="text/css"></style></defs><path d="M303.307286 9.731785L194.095037 118.944034c-11.894403 11.894403-11.894403 32.439282 0 45.414995L541.195354 511.459345 194.095037 859.640971c-11.894403 11.894403-11.894403 32.439282 0 45.414995L303.307286 1014.268215c11.894403 11.894403 32.439282 11.894403 45.414995 0l366.563886-366.563886c1.081309-1.081309 3.243928-2.162619 4.325237-3.243928l110.293559-110.293558c6.487856-6.487856 9.731785-14.057022 9.731785-22.707498s-3.243928-16.219641-9.731785-22.707497L719.611404 379.539599c-1.081309-1.081309-2.162619-2.162619-4.325237-3.243928L348.722281 9.731785C335.746568-3.243928 316.282999-3.243928 303.307286 9.731785z" p-id="4054" fill="#D4A3A0"></path></svg>