<?xml version="1.0" standalone="no"?><!DOCTYPE svg PUBLIC "-//W3C//DTD SVG 1.1//EN" "http://www.w3.org/Graphics/SVG/1.1/DTD/svg11.dtd"><svg t="1558430316613" class="icon" style="" viewBox="0 0 1024 1024" version="1.1" xmlns="http://www.w3.org/2000/svg" p-id="1978" xmlns:xlink="http://www.w3.org/1999/xlink" width="200" height="200"><defs><style type="text/css"></style></defs><path d="M936.557714 603.428571c0 1.133714 0 2.852571-0.585143 3.986286C887.405714 809.691429 720.530286 950.857143 509.696 950.857143c-111.433143 0-219.428571-43.995429-300.580571-121.161143l-73.728 73.728A36.425143 36.425143 0 0 1 109.677714 914.285714c-20.004571 0-36.571429-16.566857-36.571428-36.571428v-256c0-20.004571 16.566857-36.571429 36.571428-36.571429h256c20.004571 0 36.571429 16.566857 36.571429 36.571429a36.205714 36.205714 0 0 1-10.861714 25.709714l-78.299429 78.299429A292.022857 292.022857 0 0 0 511.926857 804.571429a291.693714 291.693714 0 0 0 249.161143-139.446858c13.714286-22.272 20.553143-43.995429 30.281143-66.852571 2.852571-8.009143 8.557714-13.129143 17.152-13.129143h109.714286c10.276571 0 18.285714 8.557714 18.285714 18.285714zM950.857143 146.285714v256c0 20.004571-16.566857 36.571429-36.571429 36.571429h-256c-20.004571 0-36.571429-16.566857-36.571428-36.571429a36.205714 36.205714 0 0 1 10.861714-25.709714l78.848-78.848A293.888 293.888 0 0 0 512 219.428571a291.693714 291.693714 0 0 0-249.161143 139.446858c-13.714286 22.272-20.553143 43.995429-30.281143 66.852571-2.852571 8.009143-8.557714 13.129143-17.152 13.129143H101.705143a18.395429 18.395429 0 0 1-18.285714-18.285714v-3.986286C132.571429 213.723429 301.129143 73.142857 512 73.142857c112.018286 0 221.147429 44.580571 302.299429 121.161143l74.276571-73.728A36.425143 36.425143 0 0 1 914.285714 109.714286c20.004571 0 36.571429 16.566857 36.571429 36.571428z" fill="#D4A3A0" p-id="1979"></path></svg>